<?xml version="1.0" standalone="no"?><!DOCTYPE svg PUBLIC "-//W3C//DTD SVG 1.1//EN" "http://www.w3.org/Graphics/SVG/1.1/DTD/svg11.dtd"><svg t="1601167725642" class="icon" viewBox="0 0 1024 1024" version="1.1" xmlns="http://www.w3.org/2000/svg" p-id="2368" xmlns:xlink="http://www.w3.org/1999/xlink" width="52" height="52"><defs><style type="text/css"></style></defs><path d="M490.770595 490.770595m-490.770595 0a490.770595 490.770595 0 1 0 981.54119 0 490.770595 490.770595 0 1 0-981.54119 0Z" fill="#D5FFFB" p-id="2369"></path><path d="M492.115825 962.245553c-75.73923-0.280256-149.236411-12.485412-219.538672-41.463901-48.414254-19.954239-92.484537-46.536537-128.189173-85.576222-21.663802-23.723685-38.311019-50.446111-45.723795-82.030981-10.523619-44.756911-3.825497-87.706169 16.408999-128.553506 22.672724-45.737807 59.456347-77.070447 103.848924-100.724069 33.224369-17.698177 68.858941-21.916033 105.600526-21.215392 4.063714 0.084077 6.165636-0.910833 7.93125-4.806393 5.380918-11.868849 11.294324-23.513493 17.081613-35.214188 7.608955-15.414089 19.351689-20.220483 35.52247-14.615359 2.452242 0.854781 3.783458 1.401281 3.979638-2.24205 0.336307-6.698123 1.205102-13.396245 2.129947-20.038316 0.462423-3.363074-0.686628-5.394931-3.278998-7.538891-39.375992-32.425639-65.425803-73.469155-78.163446-122.780229-7.861186-30.379769-7.987301-61.151897-2.970715-92.078165 4.414035-27.184849 12.163118-53.248673 25.685478-77.294652 22.630686-40.230773 56.7799-66.140457 101.130439-78.009306 43.70595-11.700695 87.524002-10.901965 130.31912 4.203843 48.316164 17.193716 80.265368 51.272867 98.468006 98.804313 10.873939 28.375937 17.417921 57.830861 17.516011 88.196618 0.224205 70.246209-27.49313 128.259237-79.662817 174.72571-5.156714 4.596201-7.006404 8.659916-5.605123 15.245936a106.497345 106.497345 0 0 1 1.681537 16.142755c0.196179 2.984728 0.630576 4.203843 4.203842 3.138869 14.012809-4.203843 25.110953 0.602551 31.767037 13.578412 5.773277 11.280311 11.602606 22.574635 16.577153 34.219278 2.802562 6.572007 6.305764 8.884121 13.648475 8.645903 23.723685-0.770704 47.643549-0.224205 70.49844 6.642071 51.693251 15.526192 96.183918 42.122503 126.745854 88.140566a169.316766 169.316766 0 0 1 27.787399 78.037331c1.69555 17.389895 3.026767 35.032021 1.961794 52.43593-1.653511 26.624336-11.392413 50.978598-25.601402 73.497181-23.667634 37.456237-56.443593 65.285675-93.885817 87.902348-47.755652 28.824347-99.589031 46.970934-154.014779 58.195194a604.792818 604.792818 0 0 1-123.845203 12.429362z m-0.126116-446.476107c10.439542-0.294269 20.879085-0.476435 31.304615-0.980897a8.505775 8.505775 0 0 0 4.708303-2.466254c13.87268-12.765669 27.703323-25.559363 41.351799-38.56325a8.870108 8.870108 0 0 0 2.242049-6.179648c-0.532487-8.912146-1.555422-17.796267-2.354152-26.694401-0.252231-2.718485-0.686628-4.287919-4.035689-2.480267a157.826263 157.826263 0 0 1-73.216925 19.617932c-5.016585-0.308282-10.047184-0.462423-15.035743-0.966883a154.841535 154.841535 0 0 1-56.191363-17.207729c-3.040779-1.583447-4.021676-1.275166-4.329958 2.256062-0.812743 9.0803-2.059883 18.132574-2.802561 27.226887a8.057365 8.057365 0 0 0 2.228036 5.717226q20.066342 19.015381 40.525043 37.680442a7.524878 7.524878 0 0 0 4.315945 2.059883c10.411517 0.476435 20.837046 0.70064 31.248563 1.008922z m41.40785 21.089276c-16.661229 0.462423-33.322459 1.24714-49.983689 1.289179-10.733811 0-21.45361-0.966884-32.229459-1.513384a30.057474 30.057474 0 0 1-5.605124-3.307022q-33.630741-30.940281-66.981225-62.020691c-5.198752-4.806393-6.123597-4.63824-9.192402 1.59746-8.28157 16.885434-16.394986 33.854946-24.900761 50.628277a7.73507 7.73507 0 0 0 0.196179 8.407686q35.956867 65.047457 71.661503 130.319119 20.472713 37.204007 41.05753 74.351963c7.314686 13.410258 14.461218 26.904592 21.986096 40.188735 5.6892 10.033171 17.740216 10.57967 23.611583 0.686627 8.071378-13.606437 15.231923-27.745361 22.770814-41.66008 1.078986-1.723575 2.242049-3.3911 3.222946-5.170726q53.851223-97.585199 107.786523-195.142372c2.536318-4.568176 2.732498-7.987301 0.378346-12.611528-8.015327-15.750397-15.582243-31.753024-23.345339-47.643549-3.559253-7.300673-4.834419-7.566917-10.761837-2.073896q-32.22946 29.889321-64.45892 59.82068a51.931469 51.931469 0 0 1-5.352892 3.867535z m-41.393837-101.648913c19.449778 0.910833 37.694455-4.203843 54.888171-12.541464 45.499589-22.210302 76.019487-58.391373 95.539329-104.479501a14.223001 14.223001 0 0 0 0.938858-5.394931q0.084077-55.756965 0-111.499918a11.014068 11.014068 0 0 0-2.284087-6.473917q-23.737698-28.726258-47.867754-57.088182a9.17839 9.17839 0 0 0-7.006405-2.704472c-31.416717 4.315945-62.791395 8.912146-94.180086 13.452296l-85.155838-13.27013c-3.321036-0.518474-6.207674-1.036948-9.0803 2.101921-17.642126 19.281625-35.578521 38.325031-53.248673 57.564618a9.640812 9.640812 0 0 0-2.564344 5.78729q-0.966884 55.770978-1.527396 111.527943a20.738957 20.738957 0 0 0 1.527396 8.127429c15.890525 37.105917 39.838415 67.793968 73.53922 90.312552 23.093109 15.414089 48.260113 25.068915 76.565986 24.578466z m0 504.363019a403.064426 403.064426 0 0 0 72.866605-4.400022c23.821775-3.699381 47.755652-7.202584 71.115003-12.919809 41.968362-10.271389 82.101045-25.685478 119.347091-48.007882 35.536483-21.327495 67.065302-47.040998 89.485796-82.591494 12.233182-19.337676 20.65488-40.230773 22.420493-63.057639a215.474958 215.474958 0 0 0-3.082818-57.872899c-7.370737-38.381083-25.223055-70.84876-55.756965-95.371175-39.754338-31.851114-84.609338-50.179868-136.484755-48.316164-3.83951 0.140128-6.081559 1.233127-7.959276 4.666265q-29.931359 54.649953-60.114949 109.299907c-25.223055 45.891948-50.64229 91.727845-75.669166 137.773934-8.099403 14.895616-17.36187 27.535169-36.349225 27.899502-15.652307 0-26.147901-7.707045-33.420549-21.229405-14.349116-26.764464-29.146642-53.346762-43.776014-79.985112-30.730089-55.925119-61.656358-111.71011-91.980075-167.859434-5.254803-9.808966-10.593683-15.56823-22.112212-11.714708a2.382177 2.382177 0 0 1-0.5465 0 158.653019 158.653019 0 0 0-75.29082 20.458701c-27.59122 15.21791-52.23975 33.854946-71.29717 59.260167a181.521922 181.521922 0 0 0-36.153047 94.222125 141.725546 141.725546 0 0 0 12.765669 73.931578c13.115989 28.333899 33.252395 51.272867 57.116208 70.890799 42.626964 35.032021 91.741858 57.452515 144.331928 72.768515 29.903334 8.701954 60.255077 15.287974 91.335487 17.880344 22.995019 1.919755 46.074115 2.802562 69.111171 4.203842z m0 0" fill="#353842" p-id="2370"></path><path d="M491.947671 939.558815c-23.037057-1.401281-46.116153-2.326126-69.111172-4.203842-31.066397-2.59237-61.432153-9.17839-91.335486-17.880344-52.632109-15.301987-101.747003-37.708468-144.331929-72.768515-23.821775-19.617932-44.000219-42.5569-57.116208-70.890798a141.725546 141.725546 0 0 1-12.765668-73.931579 181.40982 181.40982 0 0 1 36.153046-94.236137c19.05742-25.405222 43.70595-44.05627 71.29717-59.260168a158.653019 158.653019 0 0 1 75.276808-20.4587 2.382177 2.382177 0 0 0 0.546499 0c11.518529-3.853522 16.81537 1.961793 22.112212 11.714708 30.295692 56.093273 61.207948 111.892277 91.95205 167.803382 14.643385 26.624336 29.426898 53.248673 43.832065 79.999125 7.272648 13.52236 17.768241 21.257431 33.420549 21.229405l0.084077 132.883463z m0 0M491.877607 806.675352c18.973343-0.378346 28.249822-13.003886 36.335213-27.899502 25.012863-46.032076 50.446111-91.867973 75.669166-137.773934l60.114949-109.299907c1.877716-3.419125 4.119766-4.512124 7.959275-4.652253 51.847392-1.863704 96.688379 16.46505 136.484756 48.316164 30.575948 24.522415 48.386228 56.990093 55.770978 95.371176a216.049483 216.049483 0 0 1 3.068805 57.872899c-1.793639 22.784827-10.215337 43.677924-22.420494 63.057639-22.420494 35.536483-53.949313 61.263999-89.499808 82.577481-37.246045 22.322404-77.378729 37.736494-119.347091 48.007882-23.359352 5.717226-47.307242 9.220428-71.115004 12.919809a400.458044 400.458044 0 0 1-72.866604 4.400022m201.588264-192.942361h30.828179c12.247195 0 16.577153-7.160545 10.817888-17.894357-10.481581-19.547868-21.019213-39.025672-31.58487-58.559527-2.242049-4.203843-5.044611-7.412776-10.271389-7.356724-4.98856 0-7.636981 3.180908-9.808966 7.160545-10.705786 19.85615-21.495648 39.656248-32.145383 59.540424-5.212765 9.808966-0.79873 17.025562 10.285402 17.109639 10.635722 0.070064 21.271443 0 31.893152 0z m0 0" fill="#1296DB" p-id="2371"></path><path d="M491.989709 148.493733c31.388691-4.54015 62.76337-9.150364 94.180087-13.452297a9.192402 9.192402 0 0 1 7.006404 2.69046q24.186108 28.319886 47.867754 57.088182a10.901965 10.901965 0 0 1 2.270075 6.473917q0.210192 55.742953 0.070064 111.499918a14.223001 14.223001 0 0 1-0.938858 5.394931c-19.519842 46.088127-50.039739 82.269199-95.553342 104.465488-17.179703 8.407685-35.42438 13.480322-54.874158 12.611528V148.549784z m0 0" fill="#FEDFB8" p-id="2372"></path><path d="M491.989709 148.493733v286.716076c-28.305873 0.490448-53.472878-9.136351-76.565986-24.578466-33.700805-22.518583-57.648695-53.248673-73.539219-90.312552a20.430675 20.430675 0 0 1-1.513384-8.127429q0.574525-55.756965 1.513384-111.527943a9.682851 9.682851 0 0 1 2.564344-5.78729c17.71219-19.225573 35.648585-38.282993 53.248672-57.564618 2.802562-3.138869 5.745252-2.620395 9.066288-2.101921q42.570912 6.670097 85.155837 13.284143z m0 0" fill="#F9EAD6" p-id="2373"></path><path d="M457.504187 736.611309l-41.057529-74.365975-71.661503-130.31912a7.73507 7.73507 0 0 1-0.196179-8.407685c8.505775-16.81537 16.619191-33.742843 24.900761-50.642291 3.068805-6.221687 3.99365-6.389841 9.192402-1.583447l66.967212 62.020691a30.646012 30.646012 0 0 0 5.605124 3.307023c0.672615 2.312113 1.205102 4.680278 2.017844 7.006404 6.053533 16.633204 12.233182 33.224369 18.216651 49.899611a19.141497 19.141497 0 0 1 0.812743 8.099404q-4.54015 43.944168-9.360556 87.86031c-1.709563 15.722371-3.559253 31.444742-5.352893 47.167113z m0 0M533.397559 536.858722a53.500903 53.500903 0 0 0 5.352893-3.867535q32.22946-29.875308 64.458919-59.82068c5.927418-5.493021 7.202584-5.226778 10.761837 2.073896 7.749083 15.904538 15.316 31.893152 23.345339 47.643549 2.354152 4.624227 2.157973 8.043352-0.378346 12.611528q-54.159505 97.473097-107.828562 195.142372c-0.980897 1.779627-2.157973 3.461164-3.236959 5.184739l-3.559253-32.229459c-3.250972-29.230719-6.68411-58.461437-9.654825-87.720182-0.79873-7.819147-2.101921-16.380973 0.140128-23.569544 5.88538-18.791176 13.606437-37.007827 20.598829-55.462696z m0 0" fill="#FDFDFD" p-id="2374"></path><path d="M533.397559 536.858722c-7.006404 18.454869-14.713449 36.657507-20.598829 55.462697-2.242049 7.188571-0.938858 15.750397-0.140128 23.569544 2.970715 29.258744 6.403854 58.489463 9.654825 87.720182q1.807652 16.100717 3.559253 32.229459c-7.538891 13.900706-14.699436 28.025617-22.770813 41.646067-5.871367 9.893043-17.922382 9.346543-23.611583-0.686627-7.524878-13.284143-14.685423-26.778477-21.986097-40.174722 1.793639-15.722371 3.64333-31.444742 5.352893-47.167114q4.792381-43.930155 9.360556-87.86031a19.127484 19.127484 0 0 0-0.812742-8.099403c-5.913405-16.675242-12.107067-33.266408-18.216652-49.899612-0.812743-2.256062-1.401281-4.63824-2.017844-7.006404 10.719799 0.5465 21.45361 1.541409 32.22946 1.513383 16.661229 0 33.322459-0.826756 49.983688-1.289178z m0 0" fill="#F5715A" p-id="2375"></path><path d="M491.989709 458.0647a157.784225 157.784225 0 0 0 73.216925-19.617932c3.349061-1.807652 3.783458-0.238218 4.035689 2.480267 0.79873 8.898133 1.821665 17.782254 2.354152 26.6944a8.870108 8.870108 0 0 1-2.242049 6.179649c-13.648476 13.003886-27.479118 25.797581-41.351799 38.563249a8.505775 8.505775 0 0 1-4.708303 2.466254c-10.411517 0.504461-20.865072 0.686628-31.304615 0.980897z m0 0" fill="#FDDEB7" p-id="2376"></path><path d="M491.989709 458.0647v57.718758c-10.42553-0.322295-20.851059-0.5465-31.248563-1.022935a7.524878 7.524878 0 0 1-4.315945-2.059883q-20.388636-18.707099-40.525042-37.680442a8.057365 8.057365 0 0 1-2.228037-5.717226c0.70064-9.094313 1.94778-18.146587 2.802562-27.226887 0.308282-3.531228 1.289178-3.83951 4.329958-2.256062a154.841535 154.841535 0 0 0 56.191362 17.277793c4.98856 0.518474 10.019158 0.658602 15.035744 0.966884z m0 0" fill="#F8E9D5" p-id="2377"></path><path d="M693.605999 746.630467h-31.893152c-11.084132-0.09809-15.512179-7.370737-10.285402-17.123652 10.635722-19.884175 21.439597-39.670261 32.13137-59.526411 2.14396-3.979638 4.806393-7.104494 9.808966-7.160545 5.226778 0 8.029339 3.19492 10.257376 7.356724 10.509606 19.533855 21.10329 39.011659 31.598884 58.559527 5.759264 10.719799 1.401281 17.852318-10.817889 17.894357h-30.828178z m0 0" fill="#FCE081" p-id="2378"></path></svg>