<?xml version="1.0" standalone="no"?><!DOCTYPE svg PUBLIC "-//W3C//DTD SVG 1.1//EN" "http://www.w3.org/Graphics/SVG/1.1/DTD/svg11.dtd"><svg t="1601021715346" class="icon" viewBox="0 0 1057 1024" version="1.1" xmlns="http://www.w3.org/2000/svg" p-id="2562" xmlns:xlink="http://www.w3.org/1999/xlink" width="53.67578125" height="52"><defs><style type="text/css"></style></defs><path d="M595.759398 454.195436c11.144177 29.546116 87.327267 63.072294 121.181215 61.620742 94.116786-4.120536 114.953587 2.247565 119.027299 87.514564 0 3.605469 0.374594 14.047282 0.608716 28.843752a460.563537 460.563537 0 0 1-161.871508 111.113997H328.486454a460.04847 460.04847 0 0 1-150.352736-99.361105v-35.961041c3.558645-89.481183 31.746856-96.317527 127.549316-92.196991 29.546116 1.31108 95.193745-39.472861 103.294344-61.573918s8.522017-57.734327 3.324523-81.00599l89.99625 1.779323 89.996251-1.779323c-5.103846 23.365312-5.010197 58.717637 3.464996 81.00599z" fill="#FFDBA7" p-id="2563"></path><path d="M333.075233 502.986328c32.355572-11.28465 70.236408-33.198409 75.948969-48.697243 8.194248-22.522475 8.568842-57.734327 3.371347-81.00599l89.996251 1.779322 89.99625-1.779322a159.202524 159.202524 0 0 0-3.418172 30.388952l-161.35644 161.309617z" fill="#F0C07D" p-id="2564"></path><path d="M607.699587 467.587178c24.348621 20.555855 87.374091 42.844209 120.24473 41.533129 94.023138-3.792766 119.823312 6.274452 126.425534 76.651333 0.234121 2.856281-69.346747 183.129727-69.299922 224.381911H531.469673c23.599433-88.263752 55.346289-280.571037 76.229914-342.566373z" fill="#2098B3" p-id="2565"></path><path d="M392.542058 467.587178c-24.301797 20.555855-87.374091 42.844209-120.197905 41.533129-94.069962-3.792766-119.870136 6.274452-126.425534 76.651333-0.280946 2.809456 69.253098 183.363848 69.159449 224.381911h253.97485c-23.880379-89.059765-55.955005-281.554346-76.51086-342.566373z" fill="#29ACCA" p-id="2566"></path><path d="M394.040435 470.771229l108.070419 11.565595 109.475148-12.267959-10.114043 341.302117H405.231436l-11.191001-340.599753z" fill="#CDE1E6" p-id="2567"></path><path d="M397.364958 302.297499l5.197494-62.088985a143.890987 143.890987 0 0 1-20.602679-22.522474c-13.204445-20.462207-21.492341-25.191458-29.499291-19.197952-3.277699 2.434862-4.401482 10.114043-2.528511 19.713019 3.324523 16.903562 14.047282 42.141845 17.32498 56.797841 2.668983 11.846541 18.214642 52.770954 30.108007 27.298551zM605.545671 302.297499l-5.197494-62.088985a141.596598 141.596598 0 0 0 20.602679-22.522474c13.204445-20.462207 21.492341-25.191458 29.546116-19.197952 3.230875 2.434862 4.401482 10.114043 2.481686 19.713019-3.324523 16.903562-14.047282 42.141845-17.324981 56.797841-2.668983 11.846541-18.214642 52.770954-30.108006 27.298551z" fill="#FFDBA7" p-id="2568"></path><path d="M503.796528 427.318304h-1.498377c-18.729709 0-28.094563 0-38.208605-4.448305s-14.562349-14.047282-28.094564-26.877132c-11.471947-11.050528-32.12145-22.335178-37.131647-34.41584-6.883168-16.482144-4.16736-34.696785-8.475193-60.309662-3.418172-20.462207-13.017148-38.5832-14.047282-59.045407-1.170607-22.101056 2.341214 0.98331 1.592025-23.974027s-1.404728-44.623531 1.592026-61.761215c11.28465-64.664319 92.196991-84.611459 147.87105-76.370387a139.676803 139.676803 0 0 1 72.483973 31.934153 72.296676 72.296676 0 0 1 23.78673 44.06164c2.996753 17.044035 2.434862 37.178472 1.732498 61.480269s2.856281 1.779322 1.685674 23.78673c-1.076958 20.368558-10.62911 38.489551-14.047282 58.904934-4.214184 25.566052-1.498377 43.640221-8.287896 60.216014-5.057021 12.080662-25.519228 23.412136-36.94435 34.696785-13.438566 13.204445-18.167817 22.850245-28.094563 27.158078s-18.63606 4.916549-35.914217 4.963372z" fill="#FFDBA7" p-id="2569"></path><path d="M590.561904 431.532489c2.715808 18.729709 8.475193 27.62632 21.070922 37.178472l-54.03521 92.290639-57.21926-80.02268c28.422333-15.639307 79.133019-35.165028 90.183548-49.446431z" fill="#E8F7FA" p-id="2570"></path><path d="M412.629671 431.532489c-2.668983 18.729709-8.428369 27.62632-21.024098 37.178472l54.035209 92.290639 57.219261-80.02268c-28.469157-15.639307-79.133019-35.165028-90.230372-49.446431z" fill="#E8F7FA" p-id="2571"></path><path d="M504.171122 484.81851l28.094563 41.392656-0.702364 10.535462-23.178014 23.505784 25.987471 41.767251-8.709315 209.351319h-47.011569l-9.786273-209.538617 25.987471-41.76725-23.178014-23.505784-0.702364-10.535462 28.000914-41.345832 5.197494 0.140473z" fill="#51BBD3" p-id="2572"></path><path d="M504.171122 484.81851l28.094563 41.392656-0.702364 10.535462-23.178014 23.505784 25.987471 41.767251-8.709315 209.351319h-24.020851v-326.64612l2.52851 0.093648zM609.197964 468.804609c11.893365 10.067218 33.011112 20.509031 55.346289 28.422333l-1.123782 0.842837 2.809456 117.950341-50.523389-5.618913 29.452467 39.285564-41.018062 161.684211h-70.845124c23.552609-88.591522 55.205816-280.898807 75.902145-342.566373z" fill="#29ACCA" p-id="2573"></path><path d="M394.040435 468.804609c-11.893365 10.067218-33.011112 20.509031-55.346289 28.422333l1.123782 0.842837-2.809456 117.950341 50.523389-5.618913-29.452467 39.285564 44.529883 161.684211h67.473775c-23.739906-89.059765-55.439938-281.367049-76.042617-342.566373z" fill="#51BBD3" p-id="2574"></path><path d="M410.569403 113.267913c-8.756139 10.488637-26.221592 84.283689-23.412136 153.162194-29.59294-107.321231-45.466368-183.972564 18.729709-232.201564 84.283689-63.35324 178.962367-24.161324 194.320728 1.685673 61.901687 34.181718 40.362522 130.452421 21.773286 215.391651a327.769903 327.769903 0 0 0-17.98052-104.558599c-23.927203 23.927203-137.850656-27.111253-193.431067-33.479355z" fill="#703100" p-id="2575"></path><path d="M836.951222 529.488866l187.297087 194.227079c19.666194 20.415383 35.07138 69.159449 32.77699 95.849284-3.699117 24.629567-74.169647 53.894737-126.425533 9.364855l-176.059262-149.83767c-76.417212-65.132562-55.720883-140.472815-3.605469-160.419955 23.739906-8.896612 63.68101-12.361608 86.016187 10.816407z" fill="#2098B3" p-id="2576"></path><path d="M157.999281 539.087841l-142.298962 229.438932c-14.983767 24.1145-19.759843 74.918835-12.080662 100.62536 8.802963 23.412136 83.862271 37.084823 125.442224-17.278156l140.472815-183.738443c30.950844-40.456171 6.46175-75.480726-2.341213-103.996707-8.568842-27.673145-0.702364-49.446431-27.860442-53.566967-24.535918-3.83959-64.336549 1.170607-81.33376 28.515981z" fill="#29ACCA" p-id="2577"></path><path d="M521.074684 893.7817l-0.234121 1.264255c20.228085 6.508574 10.582285 38.395903-10.62911 36.944351l-0.280945 1.357904c21.913759 5.431616 15.217888 40.924414-7.164114 37.693539l-0.468243 1.592025h0.32777c11.378298 8.428369 1.685674 25.331931-18.027344 22.194705a1046.147881 1046.147881 0 0 1-123.054187-26.643011c-26.174768-7.117289-30.669898-1.404728-42.703736-25.004161l-91.962869-32.77699 17.278156-102.26421 93.929489 33.292057a40.596644 40.596644 0 0 1 36.335635-20.789976l66.584115-1.826147a16.716265 16.716265 0 0 1 21.585989 8.194248l7.304586 16.388495c14.609173 2.060268 0.702364 0.421418 54.456628 9.364854 27.860442 5.057021 18.495587 44.71718-3.277699 41.018062z" fill="#FFDBA7" p-id="2578"></path><path d="M107.850486 779.624125l228.923865 46.35603-22.428827 127.59614-260.764369-44.951301c-28.094563-4.682427-43.593397-20.134437-49.352783-38.957794-14.562349-47.526636 30.388952-104.839545 103.622114-90.043075z" fill="#29ACCA" p-id="2579"></path><path d="M270.190236 756.81134l36.031277-31.634478 173.390279 197.514144-36.026595 31.634478z" fill="#015583" p-id="2580"></path><path d="M288.212898 740.834899l18.013298-15.817239 173.394961 197.509461-18.013298 15.817239z" fill="#014B78" p-id="2581"></path><path d="M265.695106 715.3344a24.067676 24.067676 0 0 1 33.853948 2.200741l13.251269 15.077416-34.837258 33.011111-14.4687-16.435319a24.067676 24.067676 0 0 1 2.200741-33.853949z" fill="#E6F0F2" p-id="2582"></path><path d="M265.695106 715.3344a24.067676 24.067676 0 0 1 33.853948 2.200741l13.251269 15.077416-17.418629 16.575792z" fill="#CEDDE0" p-id="2583"></path><path d="M328.566056 631.369116l313.680479-32.96897 41.261548 392.56533-313.675797 32.964288z" fill="#E8F7FA" p-id="2584"></path><path d="M485.488238 614.783959l156.837898-16.482144 41.261548 392.56533-156.84258 16.482144z" fill="#CDE1E6" p-id="2585"></path><path d="M603.34493 851.218437l0.280946 1.264255c-19.993964 7.257762-9.364854 38.723673 11.987013 36.522932l0.32777 1.31108c-21.679638 6.274452-13.625863 41.486305 8.615666 37.459417l0.515067 1.545201h-0.374594c-11.003704 8.849787-0.702364 25.378755 18.729709 21.492341a1053.546116 1053.546116 0 0 0 121.977228-31.231789c25.893822-8.147423 30.576249-2.575335 41.720426-26.596186l90.698614-36.05469-21.117746-101.515021-92.571586 36.803878a40.690292 40.690292 0 0 0-37.131647-19.432073l-66.584115 0.702364c-9.364854-0.515067-19.338424-0.234121-19.010654 8.287896l0.515067 14.047282c-14.562349 2.622159-10.160867 3.699117-63.540537 14.796469-27.485848 5.80621-16.669441 45.091774 4.963373 40.596644z" fill="#F0C07D" p-id="2586"></path><path d="M947.409679 734.532352L772.052781 777.282912l27.158078 126.800128 207.291051-42.516439c27.766793-5.712561 42.797384-21.726462 47.854406-40.783941 12.736202-48.182176-34.369016-104.043532-106.946637-86.250308z" fill="#2098B3" p-id="2587"></path></svg>