<?xml version="1.0" standalone="no"?><!DOCTYPE svg PUBLIC "-//W3C//DTD SVG 1.1//EN" "http://www.w3.org/Graphics/SVG/1.1/DTD/svg11.dtd"><svg t="1601026065335" class="icon" viewBox="0 0 1024 1024" version="1.1" xmlns="http://www.w3.org/2000/svg" p-id="2858" xmlns:xlink="http://www.w3.org/1999/xlink" width="52" height="52"><defs><style type="text/css"></style></defs><path d="M0 512a512 512 0 1 0 1024 0A512 512 0 1 0 0 512z" fill="#FFF8A4" p-id="2859"></path><path d="M415.027 617.472s17.613 21.606 3.38 32.154l95.641 39.936 95.642-39.936s-13.415-19.354 3.379-32.154H415.027z" fill="#FFDFD7" p-id="2860"></path><path d="M143.36 867.328C236.442 963.891 367.206 1024 512 1024s275.456-60.109 368.64-156.672v-24.166c0-84.48-69.12-153.6-153.6-153.6H296.96c-84.48 0-153.6 69.12-153.6 153.6v24.166z" fill="#F4BD40" p-id="2861"></path><path d="M719.974 398.848c0 114.893-77.107 249.754-207.974 249.754-121.651 0-207.974-134.861-207.974-249.754S397.107 190.976 512 190.976s207.974 93.082 207.974 207.872z" fill="#FFEFE7" p-id="2862"></path><path d="M553.677 957.338h-83.354l-96.768-267.776h280.883z" fill="#FFFFFF" p-id="2863"></path><path d="M418.406 649.626l-29.49 39.936 67.378 57.446 57.447-57.446z m191.284 0l29.388 39.936-67.89 57.446-57.447-57.446z" fill="#F4F4F4" p-id="2864"></path><path d="M514.058 689.547l40.983 40.983-40.983 40.982-40.982-40.982z" fill="#333333" p-id="2865"></path><path d="M553.677 962.458h-83.354l25.6-214.528h32.154z" fill="#333333" p-id="2866"></path><path d="M320.922 492.34s-84.378-175.924 5.12-301.16c0 0 62.259-104.14 270.745-53.452 0 0 51.303 15.258 60.928 56.32 0 0 118.067 4.198 94.003 160.358 0 0-2.252 75.981-44.032 123.802 0 0 11.367-72.09 7.066-104.14-0.41-3.38-1.946-6.247-3.994-9.217l-2.355-2.867c-5.325-6.451-11.571-9.42-21.504-11.06l-6.86-0.511c-1.946-0.103-3.79 0.819-4.813 2.56l-23.962 40.96 1.638-57.651s-59.392 53.452-99.43 52.019c0 0 38.502-39.424 27.238-39.424 0 0-88.166 50.688-145.92 43.622 0 0 32.052-25.293 30.516-30.925-0.103 0-112.333-19.763-144.384 130.765z" fill="#78402A" p-id="2867"></path></svg>