<?xml version="1.0" standalone="no"?><!DOCTYPE svg PUBLIC "-//W3C//DTD SVG 1.1//EN" "http://www.w3.org/Graphics/SVG/1.1/DTD/svg11.dtd"><svg t="1601024433097" class="icon" viewBox="0 0 1024 1024" version="1.1" xmlns="http://www.w3.org/2000/svg" p-id="2718" xmlns:xlink="http://www.w3.org/1999/xlink" width="52" height="52"><defs><style type="text/css"></style></defs><path d="M0 512a512 512 0 1 0 1024 0A512 512 0 1 0 0 512z" fill="#E3EEFF" p-id="2719"></path><path d="M415.027 617.472s17.613 21.606 3.38 32.154l95.641 39.936 95.642-39.936s-13.415-19.354 3.379-32.154H415.027z" fill="#FFDFD7" p-id="2720"></path><path d="M143.36 867.328C236.442 963.891 367.206 1024 512 1024s275.456-60.109 368.64-156.672v-24.166c0-84.48-69.12-153.6-153.6-153.6H296.96c-84.48 0-153.6 69.12-153.6 153.6v24.166z" fill="#345D68" p-id="2721"></path><path d="M719.974 398.848c0 114.893-77.107 249.754-207.974 249.754-121.651 0-207.974-134.861-207.974-249.754S397.107 190.976 512 190.976s207.974 93.082 207.974 207.872z" fill="#FFEFE7" p-id="2722"></path><path d="M310.272 454.656s22.22-177.46 61.85-175.206c0 0 46.694-16.794 183.705 32.256 0 0 16.487 5.53 36.25-14.336 0 0 55.603-31.95 74.342-17.613 0 0 41.165 66.253 49.562 164.352 0 0 49.152-207.975-31.13-250.88 0 0-10.035-119.091-191.59-88.371 0 0-146.125 29.696-152.781 80.179 0 0.205-81.92 17.715-30.208 269.619z" fill="#78402A" p-id="2723"></path><path d="M553.677 957.338h-83.354l-96.768-267.776h280.883z" fill="#FFFFFF" p-id="2724"></path><path d="M418.406 649.626l-29.49 39.936 67.378 57.446 57.447-57.446z m191.284 0l29.388 39.936-67.89 57.446-57.447-57.446z" fill="#F4F4F4" p-id="2725"></path><path d="M514.058 689.547l40.983 40.983-40.983 40.982-40.982-40.982z" fill="#333333" p-id="2726"></path><path d="M553.677 962.458h-83.354l25.6-214.528h32.154z" fill="#333333" p-id="2727"></path></svg>